<?xml version="1.0" encoding="utf-8"?>
<!-- Generator: Adobe Illustrator 16.0.0, SVG Export Plug-In . SVG Version: 6.00 Build 0)  -->
<!DOCTYPE svg PUBLIC "-//W3C//DTD SVG 1.1//EN" "http://www.w3.org/Graphics/SVG/1.1/DTD/svg11.dtd">
<svg version="1.1" id="Layer_1" xmlns="http://www.w3.org/2000/svg" xmlns:xlink="http://www.w3.org/1999/xlink" x="0px" y="0px"
	 width="1246.269px" height="498.507px" viewBox="0 0 1246.269 498.507" enable-background="new 0 0 1246.269 498.507"
	 xml:space="preserve">
<g>
	<g>
		<g>
			<path fill="#FDE082" d="M199.298,329.818v-34.74h34.029c1.049,0,1.902-0.855,1.902-1.902v-26.033l17.005-17.006
				c0.742-0.741,0.742-1.948,0-2.691L235.32,230.53l-0.168-3.687c-1.392-30.753-24.292-56.006-53.833-61.217v168.262h13.907
				C197.472,333.889,199.298,332.063,199.298,329.818z"/>
			<path fill="#FDE082" d="M104.77,229.728c0.003,0.131,0.005,0.257,0.005,0.382v3.941L91.38,247.445
				c-0.742,0.743-0.742,1.95,0.001,2.692l17.004,17.004v26.034c0,1.047,0.854,1.902,1.903,1.902H140.7v34.74
				c0,2.244,1.826,4.07,4.071,4.07h17.522V165.07C129.981,168.889,104.829,196.419,104.77,229.728z"/>
		</g>
		<path fill="#3771C4" d="M265.688,233.993l-11.785-11.786c-3.537-39.131-34.076-70.589-72.584-75.81
			c-3.05-0.414-6.146-0.683-9.286-0.758l-1.708-0.041c-0.108,0-0.217-0.006-0.325-0.006c-2.599,0-5.167,0.132-7.706,0.363
			c-41.629,3.793-74.608,37.986-76.468,80.138l-7.899,7.899c-8.159,8.159-8.159,21.437,0,29.597l11.433,11.433v18.153
			c0.002,11.539,9.39,20.928,20.929,20.928h11.387v15.715c0,12.736,10.361,23.096,23.097,23.096h17.522h19.025h13.907
			c12.735,0,23.098-10.359,23.098-23.096v-15.715h15.003c11.539,0,20.927-9.389,20.928-20.928v-18.152l11.434-11.434
			C273.847,255.431,273.847,242.153,265.688,233.993z M144.771,333.889c-2.245,0-4.071-1.826-4.071-4.07v-34.74h-30.412
			c-1.05,0-1.903-0.855-1.903-1.902v-26.034l-17.004-17.004c-0.743-0.742-0.743-1.949-0.001-2.692l13.395-13.395v-3.941
			c0-0.125-0.002-0.251-0.005-0.382c0.06-33.309,25.212-60.839,57.524-64.657v168.818H144.771z M252.234,250.137l-17.005,17.006
			v26.033c0,1.047-0.854,1.902-1.902,1.902h-34.029v34.74c0,2.244-1.826,4.07-4.071,4.07h-13.907V165.627
			c29.541,5.211,52.441,30.464,53.833,61.217l0.168,3.687l16.914,16.915C252.977,248.188,252.977,249.396,252.234,250.137z"/>
	</g>
	<g>
		<path fill="#3771C4" d="M442.577,254.168c0,11.796-1.677,22.606-5.03,32.43c-3.352,9.828-8.25,18.291-14.685,25.381
			c-6.438,7.092-14.336,12.6-23.702,16.531c-9.365,3.932-20.022,5.898-31.97,5.898c-11.949,0-22.603-1.967-31.969-5.898
			c-9.364-3.932-17.268-9.439-23.701-16.531c-6.437-7.09-11.333-15.553-14.684-25.381c-3.355-9.823-5.029-20.634-5.029-32.43
			c0-11.795,1.674-22.604,5.029-32.429c3.351-9.83,8.247-18.29,14.684-25.381c6.434-7.092,14.337-12.601,23.701-16.532
			c9.366-3.932,20.02-5.898,31.969-5.898c11.947,0,22.604,1.967,31.97,5.898c9.366,3.932,17.265,9.44,23.702,16.532
			c6.435,7.091,11.333,15.551,14.685,25.381C440.9,231.563,442.577,242.373,442.577,254.168z M413.322,254.168
			c0-9.401-1.155-17.631-3.466-24.685c-2.313-7.054-5.513-12.929-9.597-17.633c-4.088-4.7-8.941-8.21-14.568-10.521
			c-5.627-2.31-11.794-3.471-18.501-3.471c-6.705,0-12.873,1.161-18.499,3.471c-5.626,2.311-10.483,5.82-14.568,10.521
			c-4.084,4.704-7.283,10.579-9.597,17.633c-2.312,7.054-3.469,15.283-3.469,24.685c0,9.402,1.157,17.634,3.469,24.687
			c2.313,7.054,5.513,12.911,9.597,17.571c4.085,4.666,8.942,8.17,14.568,10.527c5.626,2.348,11.794,3.525,18.499,3.525
			c6.707,0,12.874-1.178,18.501-3.525c5.627-2.357,10.48-5.861,14.568-10.527c4.084-4.66,7.284-10.518,9.597-17.571
			C412.167,271.802,413.322,263.57,413.322,254.168z"/>
		<path fill="#3771C4" d="M494.373,235.09h0.464c1.618-2.312,3.661-4.584,6.127-6.822c2.469-2.234,5.278-4.2,8.442-5.893
			c3.159-1.699,6.647-3.066,10.465-4.107c3.813-1.04,7.879-1.561,12.197-1.561c4.081,0,8.036,0.466,11.85,1.387
			c3.817,0.924,7.303,2.371,10.468,4.336c3.157,1.966,5.95,4.513,8.379,7.634c2.43,3.12,4.336,6.839,5.722,11.154
			c0.772,2.393,1.294,4.993,1.563,7.804c0.269,2.815,0.402,6.073,0.402,9.775v72.721H543.05v-68.443
			c0-3.008-0.114-5.592-0.345-7.749c-0.232-2.159-0.656-4.047-1.272-5.663c-1.389-3.549-3.488-6.088-6.3-7.634
			c-2.816-1.538-6.226-2.31-10.231-2.31c-5.321,0-10.427,1.252-15.323,3.756c-4.896,2.507-9.229,6.15-13.006,10.924v77.119h-27.401
			V219.484h22.659L494.373,235.09z"/>
		<path fill="#3771C4" d="M681.224,329.092c-3.473,1.463-7.713,2.717-12.723,3.758c-5.01,1.039-10.289,1.559-15.842,1.559
			c-8.094,0-15.652-1.156-22.66-3.465c-7.015-2.318-13.142-5.82-18.382-10.525c-5.24-4.699-9.37-10.652-12.371-17.863
			c-3.012-7.207-4.512-15.625-4.512-25.261c0-10.793,1.734-20.042,5.202-27.752c3.471-7.705,7.962-13.97,13.471-18.789
			c5.509-4.813,11.719-8.362,18.618-10.634c6.895-2.272,13.701-3.412,20.402-3.412c5.014,0,9.826,0.443,14.455,1.329
			c4.625,0.889,8.826,2.105,12.598,3.644v22.314c-3.389-1.463-6.986-2.638-10.809-3.525c-3.811-0.888-7.918-1.332-12.311-1.332
			c-4.391,0-8.598,0.679-12.605,2.026c-4.01,1.348-7.553,3.487-10.635,6.413c-3.082,2.934-5.531,6.807-7.342,11.62
			c-1.814,4.818-2.718,10.624-2.718,17.402c0,4.935,0.696,9.577,2.083,13.931c1.383,4.357,3.41,8.078,6.07,11.16
			c2.656,3.084,6.047,5.568,10.174,7.459c4.119,1.889,8.998,2.83,14.623,2.83c5.014,0,9.561-0.498,13.646-1.5
			c4.084-1.002,7.939-2.24,11.566-3.701V329.092z"/>
		<path fill="#3771C4" d="M762.621,312.324c5.316,0,10.861-0.537,16.645-1.615c5.781-1.08,11.643-2.625,17.578-4.627v21.854
			c-3.549,1.539-8.977,3.008-16.307,4.393c-7.324,1.387-14.92,2.08-22.775,2.08c-7.939,0-15.475-1.023-22.605-3.061
			c-7.129-2.041-13.357-5.34-18.672-9.889c-5.318-4.547-9.533-10.443-12.66-17.689c-3.123-7.244-4.684-16.033-4.684-26.36
			c0-10.174,1.467-19.079,4.393-26.708c2.93-7.633,6.861-13.952,11.795-18.962c4.928-5.012,10.578-8.768,16.941-11.274
			c6.354-2.504,12.926-3.758,19.711-3.758c7.09,0,13.623,1.078,19.598,3.235c5.969,2.158,11.137,5.554,15.498,10.176
			c4.35,4.627,7.742,10.579,10.174,17.863c2.424,7.287,3.637,15.902,3.637,25.841c-0.078,3.855-0.193,7.135-0.346,9.828h-73.418
			c0.385,5.164,1.539,9.58,3.467,13.24s4.451,6.629,7.572,8.9c3.121,2.277,6.77,3.932,10.932,4.973
			C753.253,311.803,757.761,312.324,762.621,312.324z M751.632,238.097c-3.471,0-6.547,0.636-9.248,1.911
			c-2.699,1.271-5.033,2.999-6.994,5.203c-1.971,2.195-3.525,4.758-4.686,7.688c-1.154,2.93-1.928,6.052-2.313,9.364h44.053
			c0-3.313-0.447-6.435-1.328-9.364c-0.887-2.93-2.201-5.492-3.93-7.688c-1.736-2.204-3.893-3.932-6.473-5.203
			C758.128,238.732,755.107,238.097,751.632,238.097z"/>
		<path fill="#3771C4" d="M905.062,197.859c-7.705,0-14.818,1.274-21.33,3.816c-6.516,2.545-12.102,6.242-16.768,11.101
			c-4.66,4.855-8.307,10.852-10.924,17.977c-2.625,7.136-3.934,15.285-3.934,24.458c0,9.093,1.195,17.096,3.588,23.989
			c2.387,6.899,5.816,12.659,10.289,17.286c4.469,4.623,9.924,8.109,16.363,10.467c6.434,2.348,13.732,3.525,21.908,3.525
			c5.855,0,11.828-0.465,17.922-1.391c6.088-0.926,11.793-2.273,17.109-4.047v24.396c-5.393,1.543-11.213,2.756-17.457,3.641
			c-6.242,0.887-12.719,1.33-19.424,1.33c-13.104,0-24.627-1.867-34.57-5.605c-9.943-3.74-18.252-9.021-24.916-15.844
			c-6.67-6.816-11.682-14.988-15.031-24.51c-3.35-9.518-5.031-20.021-5.031-31.505c0-11.795,1.793-22.735,5.377-32.84
			c3.586-10.092,8.752-18.843,15.49-26.245c6.746-7.399,15.186-13.216,25.322-17.459c10.135-4.237,21.602-6.396,34.4-6.473
			c6.549,0,12.754,0.444,18.613,1.331c5.859,0.888,11.139,2.136,15.844,3.757v24.051c-6.168-1.928-11.914-3.281-17.23-4.046
			C915.359,198.247,910.148,197.859,905.062,197.859z"/>
		<path fill="#3771C4" d="M1022.417,312.324c5.318,0,10.865-0.537,16.65-1.615c5.779-1.08,11.635-2.625,17.568-4.627v21.854
			c-3.539,1.539-8.979,3.008-16.301,4.393c-7.318,1.387-14.91,2.08-22.771,2.08c-7.943,0-15.479-1.023-22.605-3.061
			c-7.133-2.041-13.359-5.34-18.674-9.889c-5.32-4.547-9.541-10.443-12.662-17.689c-3.119-7.244-4.682-16.033-4.682-26.36
			c0-10.174,1.461-19.079,4.393-26.708c2.93-7.633,6.861-13.952,11.795-18.962c4.934-5.012,10.576-8.768,16.938-11.274
			c6.363-2.504,12.93-3.758,19.713-3.758c7.092,0,13.625,1.078,19.6,3.235c5.975,2.158,11.141,5.554,15.49,10.176
			c4.354,4.627,7.752,10.579,10.178,17.863c2.43,7.287,3.641,15.902,3.641,25.841c-0.078,3.855-0.193,7.135-0.348,9.828h-73.416
			c0.385,5.164,1.539,9.58,3.469,13.24c1.926,3.66,4.451,6.629,7.572,8.9c3.121,2.277,6.762,3.932,10.924,4.973
			C1013.048,311.803,1017.564,312.324,1022.417,312.324z M1011.431,238.097c-3.469,0-6.553,0.636-9.246,1.911
			c-2.701,1.271-5.031,2.999-6.996,5.203c-1.967,2.195-3.529,4.758-4.686,7.688c-1.154,2.93-1.926,6.052-2.309,9.364h44.049
			c0-3.313-0.445-6.435-1.326-9.364c-0.887-2.93-2.201-5.492-3.934-7.688c-1.732-2.204-3.893-3.932-6.475-5.203
			C1017.929,238.732,1014.9,238.097,1011.431,238.097z"/>
		<path fill="#3771C4" d="M1087.281,331.518V164.099h27.404v167.419H1087.281z"/>
		<path fill="#3771C4" d="M1147.058,331.518V164.099h27.404v167.419H1147.058z"/>
	</g>
</g>
</svg>
